<?xml version="1.0" encoding="UTF-8"?>
<svg version="1.1" xmlns="http://www.w3.org/2000/svg" width="1080" height="1080">
<path d="M0 0 C356.4 0 712.8 0 1080 0 C1080 356.4 1080 712.8 1080 1080 C723.6 1080 367.2 1080 0 1080 C0 723.6 0 367.2 0 0 Z " fill="#060606" transform="translate(0,0)"/>
<path d="M0 0 C22.58311776 -0.09343143 45.16620367 -0.16397342 67.74947548 -0.20724869 C78.23523036 -0.22787601 88.72086516 -0.25599995 99.20654297 -0.30175781 C108.34560774 -0.34162027 117.48458554 -0.36743157 126.62373483 -0.37635398 C131.46310908 -0.38156971 136.30223455 -0.39383223 141.14152908 -0.42292023 C145.69694626 -0.45007993 150.25201229 -0.45844386 154.80750275 -0.45243073 C156.4788364 -0.45353071 158.15018185 -0.46148138 159.82144547 -0.4768219 C162.10564696 -0.49675925 164.38852718 -0.49192656 166.67276001 -0.48101807 C167.95036509 -0.48470524 169.22797016 -0.48839241 170.54429054 -0.49219131 C176.75790095 0.39280354 180.95838427 4.39704876 185 9 C185.67966676 10.66140763 186.34938905 12.32700041 187 14 C187.99 14.33 188.98 14.66 190 15 C191.71875 16.92578125 191.71875 16.92578125 193.5 19.3125 C194.0878125 20.09238281 194.675625 20.87226563 195.28125 21.67578125 C195.8484375 22.44277344 196.415625 23.20976562 197 24 C197.5671875 24.71542969 198.134375 25.43085938 198.71875 26.16796875 C200 28 200 28 200 30 C200.66 30 201.32 30 202 30 C203.26953125 31.40625 203.26953125 31.40625 204.8125 33.5 C208.25782183 38.0625287 211.82246785 42.50946105 215.4375 46.9375 C216.5717814 48.33059336 217.7058985 49.72382051 218.83984375 51.1171875 C219.38108887 51.78202148 219.92233398 52.44685547 220.47998047 53.13183594 C235 70.97751365 235 70.97751365 235 74 C235.6084375 74.26425781 236.216875 74.52851563 236.84375 74.80078125 C239.14892707 76.08282719 240.0208917 77.03994853 241.5 79.1875 C243.60087605 82.13199209 245.77502985 84.98590697 248.0546875 87.79296875 C248.59931641 88.46368408 249.14394531 89.13439941 249.70507812 89.82543945 C250.81254133 91.18467244 251.9231908 92.54131594 253.03710938 93.89526367 C253.54822266 94.52537354 254.05933594 95.1554834 254.5859375 95.8046875 C255.0504834 96.37171387 255.5150293 96.93874023 255.99365234 97.52294922 C257 99 257 99 257 101 C257.66 101 258.32 101 259 101 C260.2890625 102.4609375 260.2890625 102.4609375 261.625 104.375 C262.07101562 105.00148438 262.51703125 105.62796875 262.9765625 106.2734375 C264 108 264 108 264 110 C264.99 110.33 265.98 110.66 267 111 C268.3671875 112.50390625 268.3671875 112.50390625 269.875 114.5625 C273.23295639 119.02560659 276.71392658 123.36563249 280.25 127.6875 C285.84189985 134.54206097 291.32592492 141.4745215 296.77734375 148.44091797 C300.90760199 153.70765701 305.03913565 158.94632311 309.5 163.9375 C312 167 312 167 312 170 C312.99 170.33 313.98 170.66 315 171 C318 174.44444444 318 174.44444444 318 177 C318.99 177.33 319.98 177.66 321 178 C322.6875 179.5625 322.6875 179.5625 324 181 C324.33 179.68 324.66 178.36 325 177 C325.66 177 326.32 177 327 177 C327.185625 176.34 327.37125 175.68 327.5625 175 C329.30382475 171.36593095 331.63284561 168.81931643 334.34375 165.8671875 C336.16801905 163.89656809 336.16801905 163.89656809 338 161 C338.66 161 339.32 161 340 161 C340.24234375 160.27425781 340.4846875 159.54851562 340.734375 158.80078125 C342.16323613 155.63876449 343.86511081 153.69812314 346.25 151.1875 C349.55894512 147.61468366 352.59585685 144.01714786 355.45703125 140.08203125 C357.95822379 136.70700435 360.62182826 133.46297558 363.265625 130.19921875 C365.11317891 127.91655566 365.11317891 127.91655566 367 125 C367.66 125 368.32 125 369 125 C369.35578125 124.20335937 369.35578125 124.20335937 369.71875 123.390625 C371.37378384 120.30257405 373.40548128 117.5471528 375.5 114.75 C375.90347656 114.19570313 376.30695313 113.64140625 376.72265625 113.0703125 C377.76450171 111.67430835 378.87745412 110.33197608 380 109 C380.66 109 381.32 109 382 109 C382.2475 108.45859375 382.495 107.9171875 382.75 107.359375 C384.27988604 104.4717151 386.09150997 101.90223982 388 99.25 C388.70125 98.26515625 389.4025 97.2803125 390.125 96.265625 C390.74375 95.51796875 391.3625 94.7703125 392 94 C392.66 94 393.32 94 394 94 C394.23203125 93.28457031 394.4640625 92.56914062 394.703125 91.83203125 C396.24494055 88.46511477 398.19520719 86.36229065 400.75 83.6875 C404.25762161 79.9286161 407.50315116 76.17265303 410.51953125 72.015625 C415.64392033 65.03888419 421.27992757 58.42394368 426.76953125 51.734375 C428.92830954 49.08788673 431.06141704 46.42279 433.1875 43.75 C439.6892329 35.62607825 439.6892329 35.62607825 443 32 C443.66 32 444.32 32 445 32 C445.33 30.35 445.66 28.7 446 27 C446.99 26.67 447.98 26.34 449 26 C449.37125 24.9790625 449.37125 24.9790625 449.75 23.9375 C451.32440908 20.23763867 453.64309938 17.80815025 456.34375 14.8671875 C458.16801905 12.89656809 458.16801905 12.89656809 460 10 C460.66 10 461.32 10 462 10 C462.33 9.01 462.66 8.02 463 7 C465.29167646 4.0208206 467.33535945 3.4952217 471 3 C471 2.34 471 1.68 471 1 C475.07319056 0.02577533 478.87243459 -0.12334138 483.05513 -0.12025452 C484.10284404 -0.12153615 484.10284404 -0.12153615 485.17172402 -0.12284368 C487.50554091 -0.12448707 489.83928547 -0.11899583 492.1730957 -0.11352539 C493.84868874 -0.11324325 495.52428191 -0.11340178 497.19987488 -0.1139679 C501.74489923 -0.11425481 506.28989718 -0.10837517 510.8349154 -0.10139394 C515.58616518 -0.09514278 520.33741556 -0.0945552 525.08866882 -0.09336853 C534.08416384 -0.09026042 543.0796467 -0.08205402 552.07513636 -0.07201904 C562.31689376 -0.06084178 572.55865175 -0.05534338 582.80041373 -0.05032361 C603.86694927 -0.03987099 624.93347387 -0.02228159 646 0 C644.46921029 4.0981403 642.77596202 6.62700597 639.75 9.8125 C636.44105488 13.38531634 633.40414315 16.98285214 630.54296875 20.91796875 C628.04177621 24.29299565 625.37817174 27.53702442 622.734375 30.80078125 C620.88682109 33.08344434 620.88682109 33.08344434 619 36 C618.34 36 617.68 36 617 36 C616.814375 36.66 616.62875 37.32 616.4375 38 C614.69617525 41.63406905 612.36715439 44.18068357 609.65625 47.1328125 C607.83198095 49.10343191 607.83198095 49.10343191 606 52 C605.34 52 604.68 52 604 52 C603.814375 52.66 603.62875 53.32 603.4375 54 C601.7026605 57.6205346 599.38242637 60.11837856 596.65625 63.03515625 C594.95237892 64.88430921 594.95237892 64.88430921 594.09375 66.93359375 C592.56215843 69.82720782 590.33109321 71.70150949 588 74 C585.70930438 76.63791981 583.51028582 79.34700246 581.3125 82.0625 C580.73177734 82.76955078 580.15105469 83.47660156 579.55273438 84.20507812 C578.99521484 84.89150391 578.43769531 85.57792969 577.86328125 86.28515625 C577.36094971 86.90269775 576.85861816 87.52023926 576.34106445 88.15649414 C574.94092011 89.97331419 574.94092011 89.97331419 573.96484375 92.08374023 C572.52889405 94.93565553 570.27998621 96.78270517 568 99 C566.24516144 100.98396495 564.51684257 102.97402501 562.8125 105 C562.3369165 105.56323975 561.86133301 106.12647949 561.37133789 106.70678711 C557.68720621 111.10417353 554.17355323 115.61481396 550.70703125 120.18457031 C547.83587965 123.95580515 544.86443658 127.62379918 541.8125 131.25 C538.36822948 135.34342431 535.03119147 139.49107432 531.76953125 143.73046875 C528.26642992 148.22340886 524.62003561 152.60120043 521 157 C514.06811913 165.4434324 507.14384762 173.88942291 500.5 182.5625 C497.42653995 186.54739992 494.11979084 190.26765192 490.69921875 193.95703125 C489.08220015 195.90117086 488.01958066 197.69688633 487 200 C486.34 200 485.68 200 485 200 C484.73316406 200.57621094 484.46632813 201.15242187 484.19140625 201.74609375 C482.95893849 204.07768029 481.57230313 205.99484119 479.9375 208.0625 C479.32003906 208.84496094 478.70257812 209.62742187 478.06640625 210.43359375 C475.85499109 213.18009613 473.61723956 215.90361743 471.375 218.625 C468.85295764 221.68748001 466.40109389 224.75039607 464.125 228 C462 231 462 231 460.4296875 232.5 C458.74558543 234.05386907 458.74558543 234.05386907 458 237 C457.25234375 237.59683594 456.5046875 238.19367188 455.734375 238.80859375 C452.70481988 241.23656578 450.53081685 243.96294015 448.25 247.0625 C447.37248224 248.22891047 446.49355003 249.39425802 445.61328125 250.55859375 C445.17580566 251.13851074 444.73833008 251.71842773 444.28759766 252.31591797 C440.22423607 257.63049291 435.87888481 262.73057776 431.61328125 267.8828125 C426.76283661 273.74971834 426.76283661 273.74971834 422.25 279.875 C420 283 420 283 417.6875 285.25 C414.23845635 288.77925397 411.57030245 292.71564254 408.76953125 296.76953125 C408.18558594 297.50558594 407.60164063 298.24164062 407 299 C406.34 299 405.68 299 405 299 C404.72687988 299.58700684 404.45375977 300.17401367 404.17236328 300.77880859 C403.02991997 302.9433128 401.79646144 304.65517261 400.2421875 306.5390625 C399.70287598 307.19704834 399.16356445 307.85503418 398.60791016 308.53295898 C398.0360498 309.22333252 397.46418945 309.91370605 396.875 310.625 C395.69245393 312.06619754 394.51016163 313.50760335 393.328125 314.94921875 C392.75513672 315.6457959 392.18214844 316.34237305 391.59179688 317.06005859 C387.16597301 322.45386172 382.82910406 327.9171558 378.5625 333.4375 C373.69927582 339.71227224 368.63467302 345.82401374 363.56640625 351.93359375 C358.91887962 357.47603794 358.91887962 357.47603794 354.75 363.375 C353 366 353 366 350.75 368.1875 C347.37554525 371.6386469 344.72973105 375.43141369 341.96484375 379.37890625 C340.12565466 381.83237719 338.18453778 383.85838045 336 386 C334.72781682 387.52341264 333.47868688 389.06629392 332.25 390.625 C331.55261719 391.50542969 330.85523438 392.38585937 330.13671875 393.29296875 C329.43160156 394.18628906 328.72648437 395.07960938 328 396 C321.60074334 404.0400917 315.13015213 412.01991302 308.5703125 419.9296875 C303.92048129 425.47380183 303.92048129 425.47380183 299.75 431.375 C298 434 298 434 295.70703125 436.26171875 C292.85494745 439.14672704 290.39467225 442.22196928 287.9375 445.4375 C286.475832 447.30771969 285.00868137 449.17354702 283.54101562 451.0390625 C282.49731084 452.36717353 281.45704312 453.69799154 280.41992188 455.03125 C278.86323273 457.01769996 277.27942338 458.97923128 275.6875 460.9375 C275.20853271 461.55874756 274.72956543 462.17999512 274.23608398 462.82006836 C272.82421875 464.52734375 272.82421875 464.52734375 270 467 C266.765625 467.03515625 266.765625 467.03515625 264 466 C262.0625 463.5 262.0625 463.5 261.1328125 461.88671875 C259.73107336 459.55209804 258.11166761 457.45949737 256.4375 455.3125 C255.85871094 454.56613281 255.27992188 453.81976562 254.68359375 453.05078125 C253.09911454 451.04871056 253.09911454 451.04871056 251.55249023 449.56835938 C250.06448938 448.06514857 248.7723293 446.52531559 247.4765625 444.85546875 C247.0125 444.26056641 246.5484375 443.66566406 246.0703125 443.05273438 C245.59335937 442.43720703 245.11640625 441.82167969 244.625 441.1875 C239.65181324 434.78657144 234.54131497 428.56006007 229.13671875 422.515625 C228 421 228 421 228 419 C227.34 419 226.68 419 226 419 C224.70409429 417.40618494 223.48847306 415.74675218 222.3125 414.0625 C219.66098885 410.32627975 216.99258812 406.62274147 214.1875 403 C213.64480469 402.29875 213.10210937 401.5975 212.54296875 400.875 C211.08136191 399.02754472 211.08136191 399.02754472 209.58203125 397.625 C206.39350555 394.34987237 203.85939021 390.48877069 201.15625 386.8125 C199.5141246 384.67059731 197.94492702 382.84403743 196 381 C192 376.31428571 192 376.31428571 192 374 C191.34 374 190.68 374 190 374 C188.15558948 371.851664 186.47822337 369.71776209 184.8125 367.4375 C184.33619141 366.82841797 183.85988281 366.21933594 183.36914062 365.59179688 C180.75766968 362.02039305 179.96849821 360.62694731 180.19921875 356.03515625 C180.59560547 354.53275391 180.59560547 354.53275391 181 353 C181.66 353 182.32 353 183 353 C183.26167969 352.42765625 183.52335938 351.8553125 183.79296875 351.265625 C185.08949469 348.83201643 186.56851342 346.88610347 188.3125 344.75 C189.02148438 343.87730469 189.73046875 343.00460937 190.4609375 342.10546875 C190.86022461 341.61739746 191.25951172 341.12932617 191.67089844 340.62646484 C193.15250837 338.81337054 194.62737008 336.99491131 196.1015625 335.17578125 C201.5965438 328.39795976 207.11148863 321.63670458 212.640625 314.88671875 C216.07452983 310.68530208 219.49600063 306.47382014 222.9152832 302.26049805 C225.72843323 298.79417141 228.54512044 295.33088367 231.37109375 291.875 C232.47678243 290.52101291 233.58225367 289.1668482 234.6875 287.8125 C235.22318604 287.15677002 235.75887207 286.50104004 236.31079102 285.82543945 C238.91509483 282.62256421 241.4781168 279.39773289 243.96875 276.10546875 C244.42934814 275.49662842 244.88994629 274.88778809 245.36450195 274.26049805 C246.22593553 273.11419844 247.08156721 271.96350819 247.93041992 270.80786133 C248.90799057 269.50311229 249.94832845 268.24579347 251 267 C251.66 267 252.32 267 253 267 C253.25652344 266.26007813 253.51304687 265.52015625 253.77734375 264.7578125 C255.05574541 261.87426115 256.41109344 260.16114111 258.5625 257.875 C262.32823271 253.76570312 265.87974938 249.53509344 269.390625 245.20703125 C271.34566889 242.79709329 273.31775817 240.40192642 275.296875 238.01171875 C281.29593212 230.76413532 287.23241182 223.48398581 293.00488281 216.05444336 C296.72817884 211.28665606 300.61024936 206.66528121 304.5612793 202.08496094 C307.04343896 199.2242934 307.04343896 199.2242934 309 196 C308.22916077 196.00645255 307.45832153 196.0129051 306.66412354 196.01955318 C287.89308438 196.17425879 269.12217275 196.29003558 250.35063171 196.3626852 C241.27274658 196.39875355 232.19528745 196.44791227 223.11767578 196.52807617 C215.20400897 196.59792792 207.29065072 196.64302673 199.37668419 196.65861946 C195.1875424 196.66773198 190.99928321 196.68909005 186.8104248 196.7401104 C182.86378253 196.78778899 178.91838235 196.80224851 174.97147942 196.79175377 C173.52669449 196.7936723 172.08186607 196.8075011 170.63733101 196.83443832 C158.38578063 197.05160609 158.38578063 197.05160609 153.22192383 192.598526 C152.11495587 191.42939622 151.03559511 190.23279572 150 189 C148.85144531 187.82630859 148.85144531 187.82630859 147.6796875 186.62890625 C144.19921283 182.64368742 140.87561439 178.61364238 137.74609375 174.34765625 C132.03375169 166.66730372 126.04146392 159.194074 119.875 151.875 C115.6769311 146.88686391 111.75806017 141.754663 107.91015625 136.49609375 C106.35766057 134.46737241 104.82034843 132.77167601 103 131 C99.11978808 126.40919505 95.46467499 121.64266573 91.87890625 116.8203125 C91.34128662 116.09739014 90.80366699 115.37446777 90.24975586 114.62963867 C89.175016 113.1795877 88.10414489 111.72666052 87.03735352 110.27075195 C86.54291748 109.60261475 86.04848145 108.93447754 85.5390625 108.24609375 C84.87704834 107.34395142 84.87704834 107.34395142 84.20166016 106.42358398 C83.03732308 104.8540718 83.03732308 104.8540718 81 104 C81 103.34 81 102.68 81 102 C80.34 102 79.68 102 79 102 C77.39902099 99.92689864 75.90892829 97.85001989 74.4375 95.6875 C70.53135872 90.07331226 66.42478727 84.73013386 62.0390625 79.4765625 C59.67993881 76.61126667 57.46626823 73.66104856 55.2890625 70.65625 C54.05795211 68.9973611 54.05795211 68.9973611 52.65625 67.6875 C50.16321271 65.14742427 48.05111859 62.30993953 45.875 59.5 C42.46451091 55.12538321 39.02879715 50.78041821 35.5 46.5 C31.96374255 42.19499093 28.46432871 37.86298727 25 33.5 C24.51853516 32.89994141 24.03707031 32.29988281 23.54101562 31.68164062 C21.52476719 29.13005349 20.03706354 27.11119061 19 24 C18.34 24 17.68 24 17 24 C16.0710722 22.6582154 15.15276036 21.30800985 14.28515625 19.92578125 C12.18687371 16.78154632 9.7676122 13.88940331 7.390625 10.953125 C6 9 6 9 6 7 C5.01 6.67 4.02 6.34 3 6 C0 2.55555556 0 2.55555556 0 0 Z " fill="#FDFDFD" transform="translate(219,331)"/>
<path d="M0 0 C-1.45025235 3.36638887 -3.29486453 5.48039225 -5.9375 8 C-8.57608636 10.5251518 -10.87974137 13.02233271 -13 16 C-13.66 15.67 -14.32 15.34 -15 15 C-13.88266271 13.49428343 -12.75589965 11.99555708 -11.625 10.5 C-10.99851562 9.6646875 -10.37203125 8.829375 -9.7265625 7.96875 C-9.15679688 7.3190625 -8.58703125 6.669375 -8 6 C-7.34 6 -6.68 6 -6 6 C-5.67 5.01 -5.34 4.02 -5 3 C-2.44444444 0 -2.44444444 0 0 0 Z " fill="#CBCBCC" transform="translate(687,335)"/>
<path d="M0 0 C0.66 1.32 1.32 2.64 2 4 C1.45730469 4.45890625 0.91460938 4.9178125 0.35546875 5.390625 C-0.35996094 6.00421875 -1.07539062 6.6178125 -1.8125 7.25 C-2.52019531 7.85328125 -3.22789062 8.4565625 -3.95703125 9.078125 C-5.91889671 10.92370398 -7.45669625 12.79945332 -9 15 C-9.66 14.67 -10.32 14.34 -11 14 C-7.37 9.38 -3.74 4.76 0 0 Z " fill="#323232" transform="translate(776,442)"/>
<path d="M0 0 C0 0.66 0 1.32 0 2 C-1.95927063 3.7143618 -3.95880212 5.38405168 -6 7 C-6.66 6.67 -7.32 6.34 -8 6 C-3.375 0 -3.375 0 0 0 Z " fill="#2A2A2A" transform="translate(516,768)"/>
</svg>
